# This file uses centimeters as units for non-parametric coordinates.

v 0.0 0.0 -0.5
v -0.5 0.0 0.0
v 0.0 0.0 0.5
v 0.5 0.0 0.0
v 0.0 0.95 0.0
vt 0.007602 0.044133
vt 0.496990 0.044133
vt 0.252296 0.655867
vt 0.741684 0.655867
vt 0.986378 0.044133
vt 0.496990 0.044133
vt 0.496990 0.044133
vt 0.986378 0.044133
vt 0.741684 0.655867
vt 0.496990 0.044133
vt 0.986378 0.044133
vt 0.741684 0.655867
vt 0.298225 0.598360
vt 0.687607 0.598360
vt 0.687607 0.987741
vt 0.298225 0.987741
vn 0.000000 -1.000000 -0.000000
vn 0.000000 -1.000000 -0.000000
vn 0.000000 -1.000000 -0.000000
vn 0.000000 -1.000000 -0.000000
vn -0.660633 0.356555 -0.660631
vn -0.660633 0.356555 -0.660631
vn -0.660633 0.356555 -0.660631
vn -0.660631 0.356555 0.660632
vn -0.660631 0.356555 0.660632
vn -0.660631 0.356556 0.660632
vn 0.660632 0.356555 0.660631
vn 0.660632 0.356555 0.660632
vn 0.660632 0.356555 0.660632
vn 0.660632 0.356555 -0.660632
vn 0.660632 0.356555 -0.660632
vn 0.660632 0.356555 -0.660632
f 1/13/1 4/14/2 3/15/3
f 3/15/3 2/16/4 1/13/1
f 1/10/5 2/11/6 5/12/7
f 2/1/8 3/2/9 5/3/10
f 3/6/11 4/5/12 5/4/13
f 4/7/14 1/8/15 5/9/16
